<?xml version="1.0" encoding="UTF-8"?>
<!-- Generated by Pixelmator Pro 3.7 -->
<svg width="512" height="512" viewBox="0 0 512 512" xmlns="http://www.w3.org/2000/svg">
    <g id="asclogowithglyph">
        <g id="Group">
            <g id="AMPIconGlyphApp-Store">
                <path id="Shape" fill="#000000" stroke="none" d="M 467.5755 318.52124 C 464.031464 313.776794 459.062927 310.34906 453.430328 308.762634 C 450.768829 308.038513 448.038086 307.612244 445.286316 307.491394 C 442.24231 307.312775 439.199585 307.327759 436.154266 307.327759 L 375.848969 307.327759 L 296.144714 166.269989 C 285.726013 177.076263 278.884308 190.945068 276.581024 205.927551 C 273.66748 224.602234 277.171021 243.731262 286.496918 260.067535 L 382.274048 429.569855 C 383.797028 432.264893 385.305298 434.964447 386.978912 437.56955 C 388.457184 439.943787 390.183899 442.146729 392.128632 444.139587 C 400.67868 452.754303 413.810547 454.472504 424.210632 448.337219 C 434.610718 442.201965 439.715332 429.725647 436.681488 417.856781 C 435.964783 415.13974 434.960999 412.510345 433.687927 410.014862 C 432.316833 407.231812 430.782379 404.54657 429.25943 401.851532 L 407.1745 362.763733 L 436.152985 362.763733 C 439.198273 362.763733 442.241028 362.778748 445.285065 362.600769 C 448.036835 362.479675 450.767548 362.053223 453.429016 361.328857 C 461.978668 358.926758 468.80191 352.344604 471.637634 343.763702 C 474.473358 335.1828 472.951141 325.723724 467.5755 318.52124 Z M 199.095459 307.327759 L 310.158417 110.774078 C 311.680756 108.07901 313.21521 105.394409 314.585632 102.611389 C 315.859131 100.115997 316.863098 97.486542 317.579865 94.769409 C 320.621094 82.898682 315.518005 70.416138 305.114807 64.2789 C 294.711578 58.141632 281.575165 59.863953 273.027008 68.485992 C 271.082275 70.479065 269.35553 72.682251 267.877258 75.056702 C 266.203644 77.664368 264.695374 80.361359 263.172424 83.056396 L 256.151184 95.486542 L 249.129959 83.056396 C 247.606995 80.361359 246.098709 77.661133 244.42511 75.056702 C 242.946823 72.682251 241.220108 70.479065 239.275345 68.485992 C 230.72525 59.871033 217.593124 58.152802 207.192886 64.2883 C 196.792664 70.423798 191.688217 82.900452 194.722504 94.769409 C 195.439255 97.486542 196.443253 100.115997 197.716736 102.611389 C 199.087158 105.394409 200.621613 108.07901 202.143936 110.774078 L 224.830139 150.922516 L 136.448273 307.327759 L 75.885117 307.327759 C 72.839821 307.327759 69.797081 307.312775 66.753059 307.491394 C 64.001297 307.612244 61.270565 308.038513 58.609077 308.762634 C 47.026134 312.017944 39 322.775818 39 335.045746 C 39 347.315674 47.026134 358.073547 58.609077 361.328857 C 61.27055 362.053223 64.001274 362.479675 66.753059 362.600769 C 69.797081 362.778748 72.839821 362.763733 75.885117 362.763733 L 313.931366 362.763733 C 314.662933 361.2146 315.271271 359.60788 315.750519 357.959106 C 323.293213 332.756531 304.561218 307.327759 278.767822 307.327759 L 199.095459 307.327759 Z M 97.747925 375.81842 L 83.037827 401.851532 C 81.515495 404.54657 79.981041 407.231812 78.609993 410.014862 C 77.336868 412.510345 76.333107 415.13974 75.616394 417.856781 C 72.575623 429.727448 77.678848 442.209564 88.08194 448.346588 C 98.485039 454.483643 111.621155 452.761322 120.169243 444.139587 C 122.113976 442.146729 123.840714 439.943787 125.318993 437.56955 C 126.992599 434.961853 128.500885 432.264893 130.023849 429.569855 L 151.359436 391.810028 C 149.694763 389.221893 133.768082 366.300415 97.747925 375.81842 Z"/>
            </g>
        </g>
    </g>
</svg>
